<svg id="레이어_1" data-name="레이어 1" xmlns="http://www.w3.org/2000/svg" viewBox="0 0 24 24"><defs><style>.cls-1{fill:none;stroke:#67686a;stroke-linecap:round;stroke-linejoin:round;stroke-width:2px;}</style></defs><title>Alarm</title><path class="cls-1" d="M9.92,19.86S9.07,23,12,23s2.08-3.14,2.08-3.14"/><path class="cls-1" d="M12,1V2.26c-8.11,0-7.26,9.44-7.26,11.36a3.66,3.66,0,0,1-1.36,2.61,2.07,2.07,0,0,0-.7,1.55h0a2.08,2.08,0,0,0,2.08,2.08H19.24a2.08,2.08,0,0,0,2.08-2.08h0a2.07,2.07,0,0,0-.7-1.55,3.66,3.66,0,0,1-1.36-2.61c0-1.92.85-11.36-7.26-11.36"/></svg>