<svg xmlns="http://www.w3.org/2000/svg" viewBox="0 0 20 19.8"><defs><style>.cls-1{fill:#c5b5a5;}.cls-2{fill:#f2d0ad;}.cls-10,.cls-13,.cls-14,.cls-15,.cls-3,.cls-5,.cls-7,.cls-9{fill:none;}.cls-3,.cls-5{stroke:#43362a;stroke-width:0.59px;}.cls-13,.cls-3,.cls-5,.cls-9{stroke-linecap:round;}.cls-13,.cls-3,.cls-9{stroke-linejoin:round;}.cls-4{fill:#fff;}.cls-10,.cls-5,.cls-7{stroke-miterlimit:10;}.cls-6{fill:#6d4933;}.cls-7{stroke:#6b4832;stroke-width:0.14px;}.cls-8{fill:#b27949;}.cls-10,.cls-13,.cls-9{stroke:#6d4933;}.cls-10,.cls-9{stroke-width:0.43px;}.cls-11{fill:#f3d190;}.cls-12{fill:#3b3d3d;}.cls-13{stroke-width:0.16px;}.cls-15{fill-rule:evenodd;}</style></defs><title>Logoimage_2</title><g id="레이어_2" data-name="레이어 2"><g id="상단_하단바" data-name="상단,하단바"><path class="cls-1" d="M4.06,16.69c1.21-.13,2.41-.3,3.6-.53.92-.18,2.06-.33,2.5-1.29a1.09,1.09,0,0,0-.92-1.61c-1.66-.18-3.49,0-4.4,1.59a1.08,1.08,0,0,0,.92,1.61,6.14,6.14,0,0,0,4.32-1.07,1.09,1.09,0,0,0-.54-2,3.72,3.72,0,0,0-2.9,1c-.85.79.07,2,1,1.8l6-1.11c-.28-.65-.55-1.31-.82-2-.69.52-1.36,1.06-2,1.61a1.09,1.09,0,0,0,.47,1.8l.68.15V14.64l-1.62.66a1.11,1.11,0,0,0-.74,1.32,1.07,1.07,0,0,0,1.31.75l1.62-.66c.88-.36,1.13-1.81,0-2.06l-.68-.16c.16.6.32,1.2.47,1.79.52-.44,1-.87,1.58-1.28a1.07,1.07,0,0,0-.82-1.95l-6,1.1c.35.6.69,1.2,1,1.79a1.64,1.64,0,0,1,1.39-.4l-.54-2a4.35,4.35,0,0,1-3.24.78l.92,1.61c.49-.85,1.76-.61,2.56-.52l-.93-1.62c0,.05-.22.1-.42.14-.44.1-.88.18-1.32.26-.84.15-1.67.27-2.52.36A1.1,1.1,0,0,0,3,15.62a1.08,1.08,0,0,0,1.07,1.07Z"/><path class="cls-1" d="M2,16.59q2.45-.91,5-1.62c.82-.24,1.64-.45,2.46-.65a2.7,2.7,0,0,0,1.83-1.06,1,1,0,0,0-.58-1.43c-.84-.22-1.8.44-2.56.76l1,1.69a4.7,4.7,0,0,0,.85-.61c.33-.18.27-.24-.19-.16l.41.26a13.79,13.79,0,0,0,1.5.85,10.68,10.68,0,0,0,1.61.66,9.63,9.63,0,0,0,1,.25l.38.08c.3.11.33-.1.11-.64-.94.84.45,2.22,1.38,1.38a1.47,1.47,0,0,0-.13-2.22c-.7-.58-1.82-.58-2.65-.9a20.9,20.9,0,0,1-2.59-1.41c-1-.59-1.79.17-2.63.77a1,1,0,0,0,1,1.69L9.82,14c.2-.09.74-.12.29-.24-.2-.48-.39-1-.58-1.43a3.29,3.29,0,0,1-.67.16l-1,.26c-.74.19-1.47.39-2.2.61-1.4.41-2.79.88-4.17,1.4C.29,15.14.79,17,2,16.59Z"/><path class="cls-1" d="M9.89,14.78a1.71,1.71,0,0,0-.49,2.11c.45.76,1.48.83,2.27.87a4.09,4.09,0,0,0,2.24-.36,1.66,1.66,0,0,0,.51-2.31c-.89-1.43-3-1.07-4.35-.69a3.22,3.22,0,0,0-2,1.13,1.35,1.35,0,0,0,.59,2,4.55,4.55,0,0,0,2.4,0,2.14,2.14,0,0,0,1.79-1.43c.54-2-1.86-2.4-3.21-2A3.06,3.06,0,0,0,7.81,15.5a1.32,1.32,0,0,0,1,1.85c1.31.28,3.41-.77,3.33-2.28-.13-2.16-3.23-1.6-4.38-.78-.7.49-1.32,1.31-.62,2.12s1.92.31,2.64-.19a1.08,1.08,0,0,0-.54-2l-1.46-.05c-1.38,0-1.38,2.11,0,2.15l1.46,0-.54-2a1.08,1.08,0,0,1-.71.3l.75.32-.09-.1.27,1c-.24.33-.27.41-.11.25A.65.65,0,0,1,9,16a1.65,1.65,0,0,1,.42-.21,1.47,1.47,0,0,1,.46-.11c.18,0,.33.08.24-.09s-.09-.36-.14-.54-.1,0-.34.06a2.29,2.29,0,0,1-.28.09c-.3,0-.2.15.3.34,0,.28.08.55.11.83s0,.07.19,0a2.1,2.1,0,0,1,.51-.21l.41-.06c.42-.07.1.06.06,0s-.09-.36-.14-.55.24-.11-.08-.09-.36.08-.54.1a1.79,1.79,0,0,1-.92,0l.75.75v0l-.15.55c-.11,0-.08,0,.11-.08l.41-.14a6.3,6.3,0,0,1,1-.25c.19,0,1.14-.21,1.18,0v-.57c0-.26.21,0,0-.13s-.49,0-.65,0l-.51,0a1.9,1.9,0,0,1-.25,0q-.37-.12.12.33v.57c-.08-.06,0-.12.11-.18,1-1-.53-2.48-1.51-1.51Z"/><path class="cls-1" d="M18.78,15h0a.63.63,0,0,0-.53-.2,4.61,4.61,0,0,1-2.33-.27,17.36,17.36,0,0,0-2-.88,17.49,17.49,0,0,1-2-.69c-.62-.3-1.07-.63-1.76-.31a.71.71,0,0,0-.35.56,1.21,1.21,0,0,0-.38,0,1.1,1.1,0,0,0-.66.33l0,0a1,1,0,0,0-.3-.18,1.44,1.44,0,0,0-1.15.08,16.31,16.31,0,0,1-3.14,1,.59.59,0,0,0-.48.79l-.47-.14a.63.63,0,0,0-.8.35l-.07-.05a.69.69,0,0,0-.72,1.18A18,18,0,0,0,5.4,18a16.61,16.61,0,0,0,4.31,1.29,8.15,8.15,0,0,0,4.06-1l2.24-1,.91-.4a7.08,7.08,0,0,0,2-.59A.68.68,0,0,0,18.78,15Zm-7.22-.69.74.28.57.18a1.17,1.17,0,0,0-.31.17h0a1.58,1.58,0,0,0-1.06-.38,1,1,0,0,0,.06-.25Zm-1.44,1.5c.19,0,.37,0,.53.06a3.81,3.81,0,0,1-.68.2.76.76,0,0,0,.15-.26Zm-3-.76a2.17,2.17,0,0,0,.6-.27l0,.08a2.11,2.11,0,0,0-.52.26l-.24,0,.12,0Z"/><path class="cls-2" d="M19.77,12.34a10.4,10.4,0,0,0-.05-2.43,21.57,21.57,0,0,1-.21-2.54V7.09a1.18,1.18,0,0,0,0-.2c0-.1,0-.2,0-.3a11,11,0,0,0,.08-1.8c-.05-.69-.55-1-1.12-1.25-.78-.34-1.56-.65-2.36-.94S14.52,2,13.7,1.81a.7.7,0,0,0-.32-.24L11.15.76a.57.57,0,0,0-.29,0l-.18-.1a.65.65,0,0,0-.53-.09.61.61,0,0,0-.37-.1A10.94,10.94,0,0,0,5.47,2.23a1,1,0,0,0-.15.11l-.82.23A23.72,23.72,0,0,0,1,4a.69.69,0,0,0-.27.23.68.68,0,0,0-.35.6C.32,6.56.25,8.3.27,10.05c0,.86,0,1.71.07,2.57,0,.47.06,1,0,1.42A3.2,3.2,0,0,1,.1,15a.72.72,0,0,0,1.3.56,2.19,2.19,0,0,0,1.41-.44l.26-.21c1.05-.28,2.11-.56,3.13-.94.63-.24,1.62-.48,2-1.11a6.29,6.29,0,0,0,1.51-.58.52.52,0,0,0,.19-.17,2,2,0,0,0,1,.43c.14,0,.27.06.4.09a.55.55,0,0,0,.45.33c.87.12,1.59.71,2.47.87a10.19,10.19,0,0,1,2.9,1.14.71.71,0,0,0,.6,0,.59.59,0,0,0,.57-.1c0,.14.05.27.08.41.22.89,1.59.51,1.38-.38a7.53,7.53,0,0,1,0-2.55Z"/><path class="cls-3" d="M9.41.43,1,4A1.13,1.13,0,0,0,.33,5c0,3.71,0,7.41,0,11.12l8.44,3.16a3.76,3.76,0,0,0,2.74-.05l8.2-3.38v-11a1.12,1.12,0,0,0-.7-1L10.68.42a1.6,1.6,0,0,0-1.27,0Z"/><path class="cls-4" d="M10,12.21l-9.7,3.9,9.7-3.9Z"/><path class="cls-5" d="M10,12.21l-9.7,3.9,9.7-3.9Z"/><path class="cls-5" d="M19.69,15.84,10,12.21,10,.29"/><path class="cls-1" d="M11.41,14.19a.72.72,0,0,0,0,1.43.72.72,0,0,0,0-1.43Z"/><path class="cls-6" d="M7.5,4.34,3,6.3a.49.49,0,0,0-.3.46c0,1,0,1.92,0,2.88a.5.5,0,0,0,.69.46L7.88,8.25a.5.5,0,0,0,.31-.46v-3a.5.5,0,0,0-.7-.46Z"/><path class="cls-7" d="M7.5,4.34,3,6.3a.49.49,0,0,0-.3.46c0,1,0,1.92,0,2.88a.5.5,0,0,0,.69.46L7.88,8.25a.5.5,0,0,0,.31-.46v-3a.5.5,0,0,0-.7-.46Z"/><path class="cls-4" d="M4.49,6.86l-.9.36s.23,1.45.84,1.53l.87-.34-.2-.14a1.91,1.91,0,0,1-.61-1.41Z"/><path class="cls-4" d="M5.76,6.35l-.91.36s.23,1.45.85,1.53l.87-.34a1.15,1.15,0,0,1-.2-.14,1.91,1.91,0,0,1-.61-1.41Z"/><path class="cls-4" d="M7,5.81l-.91.36S6.34,7.62,7,7.7l.86-.34-.2-.13A2,2,0,0,1,7,5.81Z"/><path class="cls-8" d="M9.88,10.89l-.49.33c0,.6,0,1.21,0,1.82l.52.22.46-.2V11.2l-.48-.31Z"/><path class="cls-9" d="M9.88,10.89l-.49.33c0,.6,0,1.21,0,1.82l.52.22.46-.2V11.2l-.48-.31Z"/><path class="cls-9" d="M10.36,11.21l-.47.2v1.67"/><path class="cls-9" d="M9.39,11.22l.5.19"/><path class="cls-8" d="M7.78,11.68,7.29,12v1.82l.52.23.46-.21V12l-.49-.32Z"/><path class="cls-9" d="M7.78,11.68,7.29,12v1.82l.52.23.46-.21V12l-.49-.32Z"/><path class="cls-9" d="M8.27,12l-.47.2v1.68"/><path class="cls-9" d="M7.29,12l.51.19"/><path class="cls-8" d="M14.87,12.56l-.49.33v1.82l.52.22.45-.2V12.87l-.48-.31Z"/><path class="cls-9" d="M14.87,12.56l-.49.33v1.82l.52.22.45-.2V12.87l-.48-.31Z"/><path class="cls-9" d="M14.38,12.89l.5.19"/><path class="cls-8" d="M12.78,13.46l-.49.33v1.82l.52.23.46-.21V13.78l-.49-.32Z"/><path class="cls-9" d="M12.78,13.46l-.49.33v1.82l.52.23.46-.21V13.78l-.49-.32Z"/><path class="cls-9" d="M13.27,13.78l-.47.2c0,.56,0,1.12,0,1.68"/><path class="cls-9" d="M12.29,13.79l.51.19"/><path class="cls-8" d="M10,10.34,7.29,11.59c0,.25,0,.51,0,.76l5.48,2.15,2.58-1.24v-.88l-5.4-2Z"/><path class="cls-9" d="M10,10.34,7.29,11.59c0,.25,0,.51,0,.76l5.48,2.15,2.58-1.24v-.88l-5.4-2Z"/><path class="cls-8" d="M7.29,11.59l5.43,2.1,2.6-1.19"/><path class="cls-10" d="M7.29,11.59l5.43,2.1,2.6-1.19"/><path class="cls-8" d="M12.78,14.5v-.83"/><path class="cls-10" d="M12.78,14.5v-.83"/><path class="cls-6" d="M16.53,10.87H16a.25.25,0,0,1-.26-.26V10A.25.25,0,0,1,16,9.73h.53a.25.25,0,0,1,.26.26v.62a.25.25,0,0,1-.26.26Z"/><path class="cls-11" d="M15.16,12.6a.87.87,0,0,0,.18.71.25.25,0,0,1-.06.35,1.11,1.11,0,0,0-.42.72,1.1,1.1,0,0,0,.41,1,1.58,1.58,0,0,0,1,.18,1.55,1.55,0,0,0,1-.2,1.08,1.08,0,0,0,.4-.95,1,1,0,0,0-.41-.71.25.25,0,0,1-.05-.35.92.92,0,0,0,.21-.71c-.1-.51-.75-.69-1.14-.7s-1,.15-1.12.66Z"/><path class="cls-10" d="M15.16,12.6a.87.87,0,0,0,.18.71.25.25,0,0,1-.06.35,1.11,1.11,0,0,0-.42.72,1.1,1.1,0,0,0,.41,1,1.58,1.58,0,0,0,1,.18,1.55,1.55,0,0,0,1-.2,1.08,1.08,0,0,0,.4-.95,1,1,0,0,0-.41-.71.25.25,0,0,1-.05-.35.92.92,0,0,0,.21-.71c-.1-.51-.75-.69-1.14-.7s-1,.15-1.12.66Z"/><path class="cls-12" d="M16.67,12.87a.41.41,0,1,1-.81,0,.41.41,0,0,1,.81,0Z"/><path class="cls-13" d="M16.67,12.87a.41.41,0,1,1-.81,0,.41.41,0,0,1,.81,0Z"/><polygon class="cls-12" points="15.78 13.94 16.79 13.94 16.79 14.2 15.78 14.2 15.78 13.94 15.78 13.94"/><path class="cls-12" d="M16,11.84V10.2s.2-.36.45,0v2.54l-.45,0v-.94Z"/><polygon class="cls-14" points="0 19.79 20 19.79 20 0.01 0 0.01 0 19.79 0 19.79"/><polygon class="cls-15" points="0 19.79 20 19.79 20 0.01 0 0.01 0 19.79 0 19.79"/><rect class="cls-2" x="18.16" y="14.75" width="0.29" height="0.24" transform="translate(6.58 -5.59) rotate(21.11)"/></g></g></svg>