<svg xmlns="http://www.w3.org/2000/svg" viewBox="0 0 26.48 11.1"><defs><style>.cls-1,.cls-3{fill:none;stroke:#6d4933;stroke-linecap:round;stroke-linejoin:round;stroke-width:1.48px;}.cls-1,.cls-2{opacity:0.3;}</style></defs><title>Logotext</title><g id="레이어_2" data-name="레이어 2"><g id="상단_하단바" data-name="상단,하단바"><path class="cls-1" d="M2.55,1.58H7.81a.25.25,0,0,1,.25.25V4.06"/><line class="cls-1" x1="4.51" y1="3.95" x2="4.51" y2="5.62"/><line class="cls-1" x1="1.43" y1="5.86" x2="9.15" y2="5.86"/><rect class="cls-1" x="2.67" y="7.86" width="5.39" height="2.5" rx="0.25"/><g class="cls-2"><path class="cls-3" d="M18.09,1.71V5.44a.25.25,0,0,0,.25.25H22a.25.25,0,0,0,.25-.25V1.71"/><line class="cls-3" x1="18.09" y1="3.34" x2="21.85" y2="3.34"/></g><g class="cls-2"><line class="cls-3" x1="24.24" y1="1.45" x2="24.24" y2="6.2"/><line class="cls-3" x1="24.45" y1="3.73" x2="25.74" y2="3.73"/></g><line class="cls-1" x1="11.88" y1="5.42" x2="15.25" y2="5.42"/><rect class="cls-1" x="18.7" y="7.93" width="5.74" height="2.35" rx="1.18"/><path class="cls-3" d="M1.86.87H7.12a.25.25,0,0,1,.24.25V3.35"/><line class="cls-3" x1="3.82" y1="3.24" x2="3.82" y2="4.91"/><line class="cls-3" x1="0.74" y1="5.15" x2="8.46" y2="5.15"/><rect class="cls-3" x="1.98" y="7.15" width="5.39" height="2.5" rx="0.25"/><path class="cls-3" d="M17.4,1V4.73a.25.25,0,0,0,.24.25H21.3a.25.25,0,0,0,.25-.25V1"/><line class="cls-3" x1="17.4" y1="2.64" x2="21.16" y2="2.64"/><line class="cls-3" x1="23.54" y1="0.74" x2="23.54" y2="5.49"/><line class="cls-3" x1="23.75" y1="3.03" x2="25.05" y2="3.03"/><line class="cls-3" x1="11.19" y1="4.71" x2="14.56" y2="4.71"/><rect class="cls-3" x="18.01" y="7.22" width="5.74" height="2.35" rx="1.18"/></g></g></svg>