<svg id="레이어_1" data-name="레이어 1" xmlns="http://www.w3.org/2000/svg" viewBox="0 0 24 24"><defs><style>.cls-1{fill:#67686a;}</style></defs><title>Portfolio</title><path class="cls-1" d="M8.33,2a1,1,0,0,1,1,1v5.3a1,1,0,0,1-1,1H3a1,1,0,0,1-1-1V3A1,1,0,0,1,3,2H8.33m0-2H3A3,3,0,0,0,0,3v5.3a3,3,0,0,0,3,3H8.33a3,3,0,0,0,3-3V3a3,3,0,0,0-3-3Z"/><path class="cls-1" d="M21,2a1,1,0,0,1,1,1V8.29a1,1,0,0,1-1,1H15.68a1,1,0,0,1-1-1V3a1,1,0,0,1,1-1H21m0-2H15.68a3,3,0,0,0-3,3V8.29a3,3,0,0,0,3,3H21a3,3,0,0,0,3-3V3a3,3,0,0,0-3-3Z"/><path class="cls-1" d="M8.33,14.69a1,1,0,0,1,1,1V21a1,1,0,0,1-1,1H3a1,1,0,0,1-1-1v-5.3a1,1,0,0,1,1-1H8.33m0-2H3a3,3,0,0,0-3,3V21a3,3,0,0,0,3,3H8.33a3,3,0,0,0,3-3v-5.3a3,3,0,0,0-3-3Z"/><path class="cls-1" d="M21,14.7a1,1,0,0,1,1,1V21a1,1,0,0,1-1,1H15.68a1,1,0,0,1-1-1V15.7a1,1,0,0,1,1-1H21m0-2H15.68a3,3,0,0,0-3,3V21a3,3,0,0,0,3,3H21a3,3,0,0,0,3-3V15.7a3,3,0,0,0-3-3Z"/></svg>