<svg xmlns="http://www.w3.org/2000/svg" viewBox="0 0 32.56 32.56"><defs><style>.cls-1{fill:#e6e6e5;}.cls-2{fill:none;stroke:#fff;stroke-linecap:round;stroke-linejoin:round;stroke-width:1.4px;}.cls-3{fill:#fff;}</style></defs><title>Profilebasic</title><g id="레이어_2" data-name="레이어 2"><g id="내용"><circle class="cls-1" cx="16.28" cy="16.28" r="16.28"/><path class="cls-2" d="M9.68,23.66h13.2a.9.9,0,0,0,.88-1.08c-.45-2.26-2.06-7.26-7.5-7.26s-7,5-7.46,7.26A.9.9,0,0,0,9.68,23.66Z"/><path class="cls-3" d="M16.26,8.93a2.8,2.8,0,1,1-2.8,2.8,2.8,2.8,0,0,1,2.8-2.8m0-1.4a4.2,4.2,0,1,0,4.21,4.2,4.2,4.2,0,0,0-4.21-4.2Z"/></g></g></svg>