<svg id="레이어_1" data-name="레이어 1" xmlns="http://www.w3.org/2000/svg" viewBox="0 0 24 24"><defs><style>.cls-1{fill:#67686a;}.cls-2{fill:none;stroke:#67686a;stroke-linecap:round;stroke-linejoin:round;stroke-width:2px;}</style></defs><title>Save</title><path class="cls-1" d="M19.1,2a1,1,0,0,1,1,1V21a1,1,0,0,1-1,1H5a1,1,0,0,1-1-1V3A1,1,0,0,1,5,2H19.1m0-2H5A3,3,0,0,0,2,3V21a3,3,0,0,0,3,3H19.1a3,3,0,0,0,3-3V3a3,3,0,0,0-3-3Z"/><path class="cls-2" d="M8.51,12.45l3.63,3.61,0-9.9"/><line class="cls-2" x1="12.14" y1="16.06" x2="15.67" y2="12.52"/><line class="cls-2" x1="7.57" y1="19.94" x2="16.54" y2="19.94"/></svg>